<svg width="77" height="19" viewBox="0 0 77 19" fill="none" xmlns="http://www.w3.org/2000/svg">
<rect x="0.5" y="1.27777" width="76" height="17" rx="4" fill="#FF3232" fill-opacity="0.15"/>
<path d="M9.262 13.3678C8.782 13.3678 8.335 13.2898 7.921 13.1338C7.513 12.9718 7.156 12.7468 6.85 12.4588C6.55 12.1648 6.316 11.8198 6.148 11.4238C5.98 11.0278 5.896 10.5958 5.896 10.1278C5.896 9.65977 5.98 9.22777 6.148 8.83177C6.316 8.43577 6.553 8.09377 6.859 7.80577C7.165 7.51177 7.522 7.28677 7.93 7.13077C8.338 6.96877 8.785 6.88777 9.271 6.88777C9.787 6.88777 10.258 6.97777 10.684 7.15777C11.11 7.33177 11.47 7.59277 11.764 7.94077L11.008 8.65177C10.78 8.40577 10.525 8.22277 10.243 8.10277C9.961 7.97677 9.655 7.91377 9.325 7.91377C8.995 7.91377 8.692 7.96777 8.416 8.07577C8.146 8.18377 7.909 8.33677 7.705 8.53477C7.507 8.73277 7.351 8.96677 7.237 9.23677C7.129 9.50677 7.075 9.80377 7.075 10.1278C7.075 10.4518 7.129 10.7488 7.237 11.0188C7.351 11.2888 7.507 11.5228 7.705 11.7208C7.909 11.9188 8.146 12.0718 8.416 12.1798C8.692 12.2878 8.995 12.3418 9.325 12.3418C9.655 12.3418 9.961 12.2818 10.243 12.1618C10.525 12.0358 10.78 11.8468 11.008 11.5948L11.764 12.3148C11.47 12.6568 11.11 12.9178 10.684 13.0978C10.258 13.2778 9.784 13.3678 9.262 13.3678ZM16.4252 13.3678C15.9332 13.3678 15.4802 13.2868 15.0662 13.1248C14.6522 12.9628 14.2922 12.7378 13.9862 12.4498C13.6802 12.1558 13.4432 11.8138 13.2752 11.4238C13.1072 11.0278 13.0232 10.5958 13.0232 10.1278C13.0232 9.65977 13.1072 9.23077 13.2752 8.84077C13.4432 8.44477 13.6802 8.10277 13.9862 7.81477C14.2922 7.52077 14.6522 7.29277 15.0662 7.13077C15.4802 6.96877 15.9302 6.88777 16.4162 6.88777C16.9082 6.88777 17.3582 6.96877 17.7662 7.13077C18.1802 7.29277 18.5402 7.52077 18.8462 7.81477C19.1522 8.10277 19.3892 8.44477 19.5572 8.84077C19.7252 9.23077 19.8092 9.65977 19.8092 10.1278C19.8092 10.5958 19.7252 11.0278 19.5572 11.4238C19.3892 11.8198 19.1522 12.1618 18.8462 12.4498C18.5402 12.7378 18.1802 12.9628 17.7662 13.1248C17.3582 13.2868 16.9112 13.3678 16.4252 13.3678ZM16.4162 12.3418C16.7342 12.3418 17.0282 12.2878 17.2982 12.1798C17.5682 12.0718 17.8022 11.9188 18.0002 11.7208C18.1982 11.5168 18.3512 11.2828 18.4592 11.0188C18.5732 10.7488 18.6302 10.4518 18.6302 10.1278C18.6302 9.80377 18.5732 9.50977 18.4592 9.24577C18.3512 8.97577 18.1982 8.74177 18.0002 8.54377C17.8022 8.33977 17.5682 8.18377 17.2982 8.07577C17.0282 7.96777 16.7342 7.91377 16.4162 7.91377C16.0982 7.91377 15.8042 7.96777 15.5342 8.07577C15.2702 8.18377 15.0362 8.33977 14.8322 8.54377C14.6342 8.74177 14.4782 8.97577 14.3642 9.24577C14.2562 9.50977 14.2022 9.80377 14.2022 10.1278C14.2022 10.4458 14.2562 10.7398 14.3642 11.0098C14.4782 11.2798 14.6342 11.5168 14.8322 11.7208C15.0302 11.9188 15.2642 12.0718 15.5342 12.1798C15.8042 12.2878 16.0982 12.3418 16.4162 12.3418ZM21.7694 13.2778V6.97777H22.7324L26.6834 11.8288H26.2064V6.97777H27.3674V13.2778H26.4044L22.4534 8.42677H22.9304V13.2778H21.7694ZM29.7755 13.2778V6.97777H30.7385L34.6895 11.8288H34.2125V6.97777H35.3735V13.2778H34.4105L30.4595 8.42677H30.9365V13.2778H29.7755ZM38.8617 9.59677H41.9937V10.5598H38.8617V9.59677ZM38.9517 12.2968H42.5067V13.2778H37.7817V6.97777H42.3807V7.95877H38.9517V12.2968ZM47.447 13.3678C46.967 13.3678 46.52 13.2898 46.106 13.1338C45.698 12.9718 45.341 12.7468 45.035 12.4588C44.735 12.1648 44.501 11.8198 44.333 11.4238C44.165 11.0278 44.081 10.5958 44.081 10.1278C44.081 9.65977 44.165 9.22777 44.333 8.83177C44.501 8.43577 44.738 8.09377 45.044 7.80577C45.35 7.51177 45.707 7.28677 46.115 7.13077C46.523 6.96877 46.97 6.88777 47.456 6.88777C47.972 6.88777 48.443 6.97777 48.869 7.15777C49.295 7.33177 49.655 7.59277 49.949 7.94077L49.193 8.65177C48.965 8.40577 48.71 8.22277 48.428 8.10277C48.146 7.97677 47.84 7.91377 47.51 7.91377C47.18 7.91377 46.877 7.96777 46.601 8.07577C46.331 8.18377 46.094 8.33677 45.89 8.53477C45.692 8.73277 45.536 8.96677 45.422 9.23677C45.314 9.50677 45.26 9.80377 45.26 10.1278C45.26 10.4518 45.314 10.7488 45.422 11.0188C45.536 11.2888 45.692 11.5228 45.89 11.7208C46.094 11.9188 46.331 12.0718 46.601 12.1798C46.877 12.2878 47.18 12.3418 47.51 12.3418C47.84 12.3418 48.146 12.2818 48.428 12.1618C48.71 12.0358 48.965 11.8468 49.193 11.5948L49.949 12.3148C49.655 12.6568 49.295 12.9178 48.869 13.0978C48.443 13.2778 47.969 13.3678 47.447 13.3678ZM52.9977 13.2778V7.96777H50.9097V6.97777H56.2557V7.96777H54.1677V13.2778H52.9977ZM58.9338 9.59677H62.0658V10.5598H58.9338V9.59677ZM59.0238 12.2968H62.5788V13.2778H57.8538V6.97777H62.4528V7.95877H59.0238V12.2968ZM64.6031 13.2778V6.97777H67.3571C68.0411 6.97777 68.6411 7.10977 69.1571 7.37377C69.6731 7.63777 70.0751 8.00377 70.3631 8.47177C70.6511 8.93977 70.7951 9.49177 70.7951 10.1278C70.7951 10.7578 70.6511 11.3098 70.3631 11.7838C70.0751 12.2518 69.6731 12.6178 69.1571 12.8818C68.6411 13.1458 68.0411 13.2778 67.3571 13.2778H64.6031ZM65.7731 12.2878H67.3031C67.7771 12.2878 68.1851 12.1978 68.5271 12.0178C68.8751 11.8378 69.1421 11.5858 69.3281 11.2618C69.5201 10.9378 69.6161 10.5598 69.6161 10.1278C69.6161 9.68977 69.5201 9.31177 69.3281 8.99377C69.1421 8.66977 68.8751 8.41777 68.5271 8.23777C68.1851 8.05777 67.7771 7.96777 67.3031 7.96777H65.7731V12.2878Z" fill="#FF3232"/>
<rect x="0.5" y="1.27777" width="76" height="17" rx="4" stroke="#FF3232"/>
</svg>
